<mxfile host="app.diagrams.net" modified="2024-01-30T22:19:02.894Z" agent="Mozilla/5.0 (Macintosh; Intel Mac OS X 10_15_7) AppleWebKit/537.36 (KHTML, like Gecko) Chrome/120.0.0.0 Safari/537.36" etag="5wM-makxALdkw7y75_8N" version="23.0.2" type="device">
  <diagram name="Page-1" id="yE9tuMjjzbdsiVKarMhN">
    <mxGraphModel dx="1017" dy="646" grid="1" gridSize="10" guides="1" tooltips="1" connect="1" arrows="1" fold="1" page="1" pageScale="1" pageWidth="827" pageHeight="1169" math="0" shadow="0">
      <root>
        <mxCell id="0" />
        <mxCell id="1" parent="0" />
        <mxCell id="lmp-GdL6mwtjaxK06hks-1" value="Fonctionnalité : Recherche par mots clés" style="whiteSpace=wrap;html=1;" parent="1" vertex="1">
          <mxGeometry x="20" y="20" width="240" height="30" as="geometry" />
        </mxCell>
        <mxCell id="lmp-GdL6mwtjaxK06hks-2" value="Problématique: Offrir un mode de recherche optimisé et performant" style="rounded=0;whiteSpace=wrap;html=1;" parent="1" vertex="1">
          <mxGeometry x="20" y="50" width="380" height="30" as="geometry" />
        </mxCell>
        <mxCell id="lmp-GdL6mwtjaxK06hks-5" value="Option 1 : méthode filter / map / foreach" style="rounded=0;whiteSpace=wrap;html=1;align=left;" parent="1" vertex="1">
          <mxGeometry x="20" y="100" width="230" height="20" as="geometry" />
        </mxCell>
        <mxCell id="lmp-GdL6mwtjaxK06hks-6" value="Avantages:&lt;br&gt;&lt;br&gt;- Moins de code&lt;br&gt;- Plus de lisibilité et plus facile à comprendre&amp;nbsp;&lt;br&gt;- Méthode la plus rapide au bench" style="rounded=0;whiteSpace=wrap;html=1;align=left;" parent="1" vertex="1">
          <mxGeometry x="20" y="120" width="380" height="90" as="geometry" />
        </mxCell>
        <mxCell id="lmp-GdL6mwtjaxK06hks-7" value="Option 2 : Méthode boucle for et while&amp;nbsp;" style="rounded=0;whiteSpace=wrap;html=1;" parent="1" vertex="1">
          <mxGeometry x="20" y="250" width="220" height="30" as="geometry" />
        </mxCell>
        <mxCell id="lmp-GdL6mwtjaxK06hks-8" value="Avantages:&lt;br&gt;&lt;br&gt;- Plus flexible&amp;nbsp;&lt;br&gt;- Plus habituellement utilisée par les développeurs&amp;nbsp;" style="rounded=0;whiteSpace=wrap;html=1;align=left;" parent="1" vertex="1">
          <mxGeometry x="20" y="280" width="380" height="90" as="geometry" />
        </mxCell>
        <mxCell id="lmp-GdL6mwtjaxK06hks-9" value="inconvénients :" style="rounded=0;whiteSpace=wrap;html=1;align=left;" parent="1" vertex="1">
          <mxGeometry x="400" y="120" width="270" height="90" as="geometry" />
        </mxCell>
        <mxCell id="lmp-GdL6mwtjaxK06hks-10" value="&lt;font style=&quot;font-size: 12px;&quot;&gt;&lt;font style=&quot;font-size: 12px;&quot; face=&quot;Roboto, Helvetica Neue, sans-serif&quot; color=&quot;#151526&quot;&gt;&lt;span style=&quot;background-color: rgb(255, 255, 255);&quot;&gt;Inconvénients:&lt;br&gt;&lt;/span&gt;&lt;/font&gt;- Plus de code&lt;br&gt;- Moins optimisé&lt;br&gt;- Moins lisible et plus compliqué à comprendre&amp;nbsp;&lt;/font&gt;" style="rounded=0;whiteSpace=wrap;html=1;align=left;" parent="1" vertex="1">
          <mxGeometry x="400" y="280" width="350" height="90" as="geometry" />
        </mxCell>
        <mxCell id="lmp-GdL6mwtjaxK06hks-11" value="Solutions retenue : la méthode numéro 1 est retenue car elle est plus optimisée que la deuxième&amp;nbsp;" style="rounded=0;whiteSpace=wrap;html=1;" parent="1" vertex="1">
          <mxGeometry x="20" y="410" width="580" height="80" as="geometry" />
        </mxCell>
      </root>
    </mxGraphModel>
  </diagram>
</mxfile>
